# This file uses centimeters as units for non-parametric coordinates.

mtllib TALL_Rock_11.mtl
g default
v -1.099745 0.007998 0.416541
v 1.174678 0.429867 -0.180224
v 0.890060 -0.829005 -0.453030
v -1.115145 -0.037591 1.155871
v -0.774005 1.988489 1.205836
v 0.711273 1.917953 0.930708
v 0.804884 -1.065118 1.243425
v 1.503112 1.671844 0.082090
v -0.901028 -1.649754 0.007921
v 1.170832 0.460908 1.030969
v 0.538834 -1.980602 0.464884
v -0.587790 -0.000047 -0.808980
v -0.162611 -3.169282 -0.468127
v -0.990846 1.956657 0.070198
v -0.276452 -1.650886 -0.845797
v 0.229826 3.219794 -0.707342
v 0.000000 -0.000039 -0.999970
v 0.262954 -1.943209 -0.801381
v 0.425718 -3.169313 -0.277119
v -0.634281 3.232982 0.462235
v 0.695749 1.934636 -0.496212
v -1.117093 0.805732 -0.601133
v 0.623945 -2.028827 1.001886
v -0.602029 3.219848 -0.436994
v -0.526214 -3.169242 0.031844
v -0.711212 1.489494 1.435823
v -0.293222 -1.850633 0.193287
v 0.772776 3.224613 0.014534
v 1.128489 0.171876 -0.664900
v -0.899654 1.692021 0.760684
v 0.428018 -3.170457 0.342711
v -0.533611 -1.398241 1.121255
v 0.525291 1.685648 1.421444
v 0.541878 3.293038 0.994517
v -0.163802 -3.169587 0.532574
v -0.016533 -0.188493 0.331700
v 0.581956 -0.004362 1.555867
v 1.018052 -0.078644 0.791620
v -0.405241 -0.002466 1.513434
v -0.772584 -2.013005 0.618458
v 0.000000 0.005935 1.771397
v 0.717765 1.980271 0.708101
v -0.376184 -1.534841 1.072531
v 0.492704 -2.025122 0.062890
v 1.226360 0.018807 0.396143
v 0.272955 3.239578 0.749459
v 0.587790 -0.000047 -0.808980
v -1.146055 -0.021831 -0.645621
v -0.736062 1.645787 -0.524210
v 0.000000 -3.747386 0.054311
vn -0.969243 -0.238104 0.062243
vn -0.969243 -0.238104 0.062243
vn -0.969243 -0.238104 0.062243
vn -0.970182 0.194967 0.143998
vn -0.970182 0.194967 0.143998
vn -0.970182 0.194967 0.143998
vn -0.981933 -0.147058 0.119082
vn -0.981933 -0.147058 0.119082
vn -0.981933 -0.147058 0.119082
vn -0.931799 -0.119642 0.342691
vn -0.931799 -0.119642 0.342691
vn -0.931799 -0.119642 0.342691
vn -0.308812 -0.037044 -0.950401
vn -0.308812 -0.037044 -0.950401
vn -0.308812 -0.037044 -0.950401
vn -0.052932 -0.244772 -0.968135
vn -0.052932 -0.244772 -0.968135
vn -0.052932 -0.244772 -0.968135
vn 0.616680 0.257690 -0.743843
vn 0.616680 0.257690 -0.743843
vn 0.616680 0.257690 -0.743843
vn 0.838355 0.295924 0.457809
vn 0.838355 0.295924 0.457809
vn 0.838355 0.295924 0.457809
vn 0.625856 0.245378 -0.740334
vn 0.625856 0.245378 -0.740334
vn 0.625856 0.245378 -0.740334
vn 0.327081 -0.269641 -0.905711
vn 0.327081 -0.269641 -0.905711
vn 0.327081 -0.269641 -0.905711
vn 0.002633 0.999824 -0.018569
vn 0.002633 0.999824 -0.018569
vn 0.002633 0.999824 -0.018569
vn -0.854261 -0.087085 0.512497
vn -0.854261 -0.087085 0.512498
vn -0.854261 -0.087085 0.512497
vn 0.784441 0.187259 -0.591258
vn 0.784441 0.187259 -0.591258
vn 0.784441 0.187259 -0.591258
vn 0.941278 0.252521 -0.224118
vn 0.941278 0.252521 -0.224118
vn 0.941278 0.252521 -0.224118
vn 0.621151 -0.106873 -0.776369
vn 0.621151 -0.106873 -0.776369
vn 0.621151 -0.106873 -0.776369
vn 0.611955 0.092827 -0.785426
vn 0.611955 0.092827 -0.785426
vn 0.611955 0.092827 -0.785426
vn 0.986705 0.146742 0.069855
vn 0.986705 0.146742 0.069855
vn 0.986705 0.146742 0.069855
vn -0.261858 0.516523 0.815251
vn -0.261858 0.516523 0.815251
vn -0.261858 0.516523 0.815251
vn -0.431917 -0.206932 0.877854
vn -0.431917 -0.206932 0.877854
vn -0.431917 -0.206932 0.877854
vn -0.955024 -0.292210 0.050430
vn -0.955024 -0.292210 0.050430
vn -0.955024 -0.292210 0.050430
vn -0.754420 0.390500 -0.527599
vn -0.754420 0.390500 -0.527599
vn -0.754420 0.390500 -0.527599
vn 0.289995 -0.343454 -0.893276
vn 0.289995 -0.343454 -0.893276
vn 0.289995 -0.343454 -0.893276
vn -0.659235 -0.581495 0.476732
vn -0.659235 -0.581495 0.476732
vn -0.659235 -0.581495 0.476732
vn 0.642859 0.151088 -0.750936
vn 0.642859 0.151088 -0.750936
vn 0.642859 0.151088 -0.750936
vn -0.244133 -0.392706 -0.886669
vn -0.244132 -0.392706 -0.886669
vn -0.244132 -0.392706 -0.886669
vn 0.089851 0.050327 -0.994683
vn 0.089851 0.050327 -0.994683
vn 0.089851 0.050327 -0.994683
vn -0.307271 0.107871 -0.945488
vn -0.307271 0.107871 -0.945488
vn -0.307271 0.107871 -0.945488
vn 0.585729 0.016257 -0.810344
vn 0.585729 0.016257 -0.810344
vn 0.585729 0.016257 -0.810344
vn -0.733285 -0.425362 0.530434
vn -0.733285 -0.425362 0.530434
vn -0.733285 -0.425362 0.530434
vn -0.756146 -0.169425 -0.632090
vn -0.756146 -0.169425 -0.632090
vn -0.756146 -0.169425 -0.632090
vn 0.028939 -0.097750 -0.994790
vn 0.028939 -0.097750 -0.994790
vn 0.028939 -0.097750 -0.994790
vn -0.307224 0.107859 -0.945505
vn -0.307224 0.107859 -0.945505
vn -0.307224 0.107859 -0.945505
vn 0.308388 0.064244 -0.949089
vn 0.308388 0.064244 -0.949089
vn 0.308388 0.064244 -0.949089
vn -0.283109 0.138696 -0.949006
vn -0.283109 0.138696 -0.949006
vn -0.283109 0.138696 -0.949006
vn -0.791687 -0.204351 -0.575737
vn -0.791687 -0.204351 -0.575737
vn -0.791687 -0.204351 -0.575737
vn 0.692516 -0.066055 0.718372
vn 0.692515 -0.066055 0.718372
vn 0.692516 -0.066055 0.718372
vn 0.972415 -0.174741 0.154514
vn 0.972415 -0.174741 0.154514
vn 0.972415 -0.174741 0.154514
vn 0.308552 -0.055294 -0.949599
vn 0.308552 -0.055294 -0.949599
vn 0.308552 -0.055294 -0.949599
vn -0.909894 -0.163093 -0.381437
vn -0.909894 -0.163093 -0.381437
vn -0.909894 -0.163093 -0.381437
vn -0.935872 -0.331805 0.118532
vn -0.935872 -0.331805 0.118532
vn -0.935872 -0.331805 0.118532
vn 0.105904 -0.260411 0.959672
vn 0.105904 -0.260411 0.959672
vn 0.105904 -0.260411 0.959672
vn 0.211641 0.144456 -0.966613
vn 0.211641 0.144456 -0.966613
vn 0.211641 0.144456 -0.966613
vn -0.001691 0.999984 -0.005402
vn -0.001691 0.999984 -0.005402
vn -0.001691 0.999984 -0.005402
vn 0.333166 -0.242425 0.911170
vn 0.333166 -0.242425 0.911170
vn 0.333166 -0.242425 0.911170
vn 0.058389 -0.275013 0.959666
vn 0.058389 -0.275013 0.959666
vn 0.058389 -0.275013 0.959666
vn 0.985962 -0.166921 -0.003966
vn 0.985962 -0.166921 -0.003966
vn 0.985962 -0.166921 -0.003966
vn -0.002616 0.999889 -0.014698
vn -0.002616 0.999889 -0.014698
vn -0.002616 0.999889 -0.014698
vn 0.243992 0.919791 -0.307333
vn 0.243992 0.919791 -0.307333
vn 0.243992 0.919791 -0.307333
vn 0.194301 0.972293 -0.129975
vn 0.194301 0.972293 -0.129975
vn 0.194301 0.972293 -0.129975
vn -0.054823 0.412252 0.909419
vn -0.054823 0.412252 0.909419
vn -0.054823 0.412252 0.909419
vn -0.644231 -0.604570 -0.468467
vn -0.644231 -0.604570 -0.468468
vn -0.644231 -0.604570 -0.468467
vn 0.244318 -0.611437 -0.752631
vn 0.244318 -0.611437 -0.752631
vn 0.244318 -0.611437 -0.752631
vn -0.445254 0.251803 0.859270
vn -0.445254 0.251802 0.859270
vn -0.445254 0.251802 0.859270
vn -0.992608 0.120644 -0.013236
vn -0.992608 0.120644 -0.013236
vn -0.992608 0.120644 -0.013236
vn -0.959282 0.279816 -0.038493
vn -0.959282 0.279816 -0.038493
vn -0.959282 0.279816 -0.038493
vn 0.915247 0.094575 0.391636
vn 0.915247 0.094575 0.391636
vn 0.915247 0.094575 0.391636
vn 0.804084 -0.594502 -0.004081
vn 0.804084 -0.594502 -0.004081
vn 0.804084 -0.594502 -0.004081
vn 0.347354 0.085920 0.933790
vn 0.347354 0.085920 0.933790
vn 0.347354 0.085920 0.933790
vn 0.872416 -0.300497 0.385477
vn 0.872416 -0.300497 0.385477
vn 0.872416 -0.300497 0.385477
vn 0.260999 -0.515903 0.815919
vn 0.260999 -0.515903 0.815919
vn 0.260999 -0.515903 0.815919
vn 0.799863 0.264837 0.538592
vn 0.799863 0.264837 0.538592
vn 0.799862 0.264837 0.538592
vn 0.968861 -0.246609 0.022178
vn 0.968861 -0.246609 0.022178
vn 0.968861 -0.246609 0.022178
vn -0.925986 0.012120 0.377363
vn -0.925986 0.012120 0.377363
vn -0.925986 0.012120 0.377363
vn -0.512402 -0.328623 0.793379
vn -0.512402 -0.328623 0.793379
vn -0.512402 -0.328623 0.793379
vn 0.139975 -0.105288 0.984541
vn 0.139975 -0.105288 0.984541
vn 0.139975 -0.105288 0.984541
vn 0.443406 0.896263 0.010211
vn 0.443406 0.896263 0.010211
vn 0.443406 0.896263 0.010211
vn 0.249246 -0.574604 0.779555
vn 0.249246 -0.574604 0.779555
vn 0.249246 -0.574604 0.779556
vn -0.919072 -0.391704 -0.043297
vn -0.919072 -0.391704 -0.043297
vn -0.919072 -0.391704 -0.043297
vn -0.894417 0.100310 -0.435840
vn -0.894417 0.100310 -0.435840
vn -0.894417 0.100310 -0.435840
vn -0.093093 -0.323156 0.941756
vn -0.093093 -0.323156 0.941756
vn -0.093093 -0.323156 0.941756
vn -0.554869 0.093055 -0.826717
vn -0.554870 0.093055 -0.826717
vn -0.554869 0.093055 -0.826717
vn 0.980405 -0.195696 0.022553
vn 0.980405 -0.195696 0.022553
vn 0.980405 -0.195696 0.022553
vn 0.625922 0.082669 0.775492
vn 0.625922 0.082669 0.775492
vn 0.625922 0.082669 0.775492
vn -0.995193 0.068121 0.070364
vn -0.995193 0.068121 0.070364
vn -0.995193 0.068121 0.070364
vn 0.860171 0.145285 0.488874
vn 0.860171 0.145285 0.488874
vn 0.860171 0.145285 0.488875
vn 0.951729 -0.203067 -0.230166
vn 0.951729 -0.203067 -0.230166
vn 0.951729 -0.203067 -0.230166
vn 0.995703 -0.004501 -0.092493
vn 0.995703 -0.004501 -0.092493
vn 0.995703 -0.004501 -0.092493
vn -0.948642 -0.283556 0.140262
vn -0.948642 -0.283556 0.140262
vn -0.948642 -0.283556 0.140262
vn 0.962718 -0.204337 -0.177258
vn 0.962718 -0.204337 -0.177258
vn 0.962718 -0.204337 -0.177258
vn -0.983241 0.083731 0.161947
vn -0.983241 0.083731 0.161947
vn -0.983241 0.083731 0.161947
vn 0.990919 0.119181 0.062263
vn 0.990918 0.119181 0.062263
vn 0.990919 0.119181 0.062263
vn 0.715129 -0.192400 -0.671992
vn 0.715129 -0.192400 -0.671992
vn 0.715129 -0.192400 -0.671992
vn -0.992599 -0.103212 -0.063986
vn -0.992599 -0.103212 -0.063986
vn -0.992599 -0.103212 -0.063986
vn -0.960539 -0.206671 -0.186152
vn -0.960539 -0.206671 -0.186152
vn -0.960539 -0.206671 -0.186152
vn -0.237930 -0.557821 0.795125
vn -0.237930 -0.557821 0.795125
vn -0.237930 -0.557821 0.795125
vn 0.664197 0.341337 0.665080
vn 0.664197 0.341337 0.665080
vn 0.664197 0.341337 0.665080
vn 0.958822 -0.254916 -0.125217
vn 0.958821 -0.254916 -0.125217
vn 0.958821 -0.254916 -0.125217
vn -0.957202 0.204507 0.204796
vn -0.957202 0.204507 0.204796
vn -0.957202 0.204507 0.204796
vn -0.022029 0.210510 0.977344
vn -0.022029 0.210510 0.977343
vn -0.022029 0.210510 0.977343
vn -0.534860 -0.065869 0.842369
vn -0.534860 -0.065869 0.842370
vn -0.534860 -0.065869 0.842370
vn -0.516899 -0.245741 0.820016
vn -0.516899 -0.245741 0.820016
vn -0.516899 -0.245741 0.820016
vn 0.632596 0.041025 0.773395
vn 0.632595 0.041025 0.773395
vn 0.632595 0.041025 0.773395
vn -0.062275 0.387612 0.919717
vn -0.062275 0.387612 0.919717
vn -0.062275 0.387612 0.919717
vn 0.980244 -0.193868 0.039200
vn 0.980244 -0.193868 0.039200
vn 0.980244 -0.193868 0.039200
vn 0.967589 -0.242053 -0.071979
vn 0.967589 -0.242053 -0.071979
vn 0.967589 -0.242053 -0.071979
vn -0.681532 0.194413 0.705491
vn -0.681532 0.194413 0.705491
vn -0.681532 0.194413 0.705491
s off
g untitled:Mesh
usemtl untitled:None
f 40//1 9//2 25//3
f 30//4 5//5 20//6
f 9//7 40//8 1//9
f 30//10 39//11 5//12
f 17//13 15//14 12//15
f 18//16 13//17 15//18
f 28//19 8//20 21//21
f 33//22 10//23 6//24
f 46//25 34//26 42//27
f 47//28 29//29 3//30
f 28//31 24//32 46//33
f 1//34 40//35 32//36
f 28//37 21//38 16//39
f 21//40 2//41 29//42
f 18//43 47//44 3//45
f 16//46 21//47 47//48
f 42//49 6//50 38//51
f 5//52 46//53 20//54
f 39//55 4//56 32//57
f 41//58 36//59 11//60
f 22//61 14//62 49//63
f 19//64 13//65 18//66
f 50//67 35//68 25//69
f 38//70 6//71 10//72
f 9//73 48//74 12//75
f 22//76 49//77 48//78
f 16//79 12//80 24//81
f 2//82 21//83 8//84
f 35//85 40//86 25//87
f 12//88 13//89 9//90
f 17//91 18//92 15//93
f 12//94 16//95 17//96
f 47//97 17//98 16//99
f 12//100 48//101 49//102
f 13//103 25//104 9//105
f 7//106 10//107 37//108
f 36//109 43//110 27//111
f 47//112 18//113 17//114
f 15//115 13//116 12//117
f 11//118 23//119 41//120
f 37//121 23//122 7//123
f 21//124 29//125 47//126
f 24//127 28//128 16//129
f 41//130 23//131 37//132
f 39//133 32//134 43//135
f 19//136 23//137 31//138
f 46//139 24//140 20//141
f 43//142 11//143 27//144
f 11//145 44//146 27//147
f 26//148 33//149 5//150
f 50//151 25//152 13//153
f 19//154 50//155 13//156
f 4//157 39//158 30//159
f 4//160 30//161 1//162
f 24//163 14//164 20//165
f 6//166 34//167 33//168
f 50//169 19//170 31//171
f 37//172 33//173 41//174
f 19//175 45//176 38//177
f 31//178 23//179 35//180
f 42//181 28//182 46//183
f 41//184 43//185 36//186
f 22//187 48//188 9//189
f 40//190 35//191 43//192
f 36//193 27//194 44//195
f 11//196 43//197 23//198
f 31//199 35//200 50//201
f 4//202 1//203 32//204
f 49//205 14//206 24//207
f 23//208 43//209 35//210
f 12//211 49//212 24//213
f 23//214 19//215 38//216
f 33//217 37//218 10//219
f 1//220 14//221 22//222
f 42//223 38//224 45//225
f 2//226 8//227 45//228
f 29//229 2//230 45//231
f 36//232 44//233 11//234
f 3//235 45//236 19//237
f 1//238 30//239 14//240
f 34//241 6//242 42//243
f 18//244 3//245 19//246
f 22//247 9//248 1//249
f 5//250 39//251 26//252
f 32//253 40//254 43//255
f 8//256 28//257 42//258
f 3//259 29//260 45//261
f 14//262 30//263 20//264
f 41//265 33//266 26//267
f 39//268 41//269 26//270
f 43//271 41//272 39//273
f 42//274 45//275 8//276
f 33//277 46//278 5//279
f 7//280 23//281 38//282
f 7//283 38//284 10//285
f 46//286 33//287 34//288
